<svg id="visual" viewBox="0 0 900 600" width="900" height="600" xmlns="http://www.w3.org/2000/svg" xmlns:xlink="http://www.w3.org/1999/xlink" version="1.1"><rect x="0" y="0" width="900" height="600" fill="#001220"></rect><path d="M0 315L13.7 311.8C27.3 308.7 54.7 302.3 82 302.2C109.3 302 136.7 308 163.8 298.3C191 288.7 218 263.3 245.2 253.2C272.3 243 299.7 248 327 258.8C354.3 269.7 381.7 286.3 409 296.7C436.3 307 463.7 311 491 303.3C518.3 295.7 545.7 276.3 573 265.5C600.3 254.7 627.7 252.3 654.8 244.3C682 236.3 709 222.7 736.2 226.2C763.3 229.7 790.7 250.3 818 263.3C845.3 276.3 872.7 281.7 886.3 284.3L900 287L900 601L886.3 601C872.7 601 845.3 601 818 601C790.7 601 763.3 601 736.2 601C709 601 682 601 654.8 601C627.7 601 600.3 601 573 601C545.7 601 518.3 601 491 601C463.7 601 436.3 601 409 601C381.7 601 354.3 601 327 601C299.7 601 272.3 601 245.2 601C218 601 191 601 163.8 601C136.7 601 109.3 601 82 601C54.7 601 27.3 601 13.7 601L0 601Z" fill="#0e3f68"></path><path d="M0 392L13.7 381.8C27.3 371.7 54.7 351.3 82 341.3C109.3 331.3 136.7 331.7 163.8 335.3C191 339 218 346 245.2 350.2C272.3 354.3 299.7 355.7 327 363.8C354.3 372 381.7 387 409 395.2C436.3 403.3 463.7 404.7 491 399.2C518.3 393.7 545.7 381.3 573 383.7C600.3 386 627.7 403 654.8 403.8C682 404.7 709 389.3 736.2 372.5C763.3 355.7 790.7 337.3 818 338.2C845.3 339 872.7 359 886.3 369L900 379L900 601L886.3 601C872.7 601 845.3 601 818 601C790.7 601 763.3 601 736.2 601C709 601 682 601 654.8 601C627.7 601 600.3 601 573 601C545.7 601 518.3 601 491 601C463.7 601 436.3 601 409 601C381.7 601 354.3 601 327 601C299.7 601 272.3 601 245.2 601C218 601 191 601 163.8 601C136.7 601 109.3 601 82 601C54.7 601 27.3 601 13.7 601L0 601Z" fill="#00879b"></path><path d="M0 452L13.7 459.8C27.3 467.7 54.7 483.3 82 481.5C109.3 479.7 136.7 460.3 163.8 464.7C191 469 218 497 245.2 511.2C272.3 525.3 299.7 525.7 327 514C354.3 502.3 381.7 478.7 409 477C436.3 475.3 463.7 495.7 491 506.8C518.3 518 545.7 520 573 521.2C600.3 522.3 627.7 522.7 654.8 514.7C682 506.7 709 490.3 736.2 487C763.3 483.7 790.7 493.3 818 500.3C845.3 507.3 872.7 511.7 886.3 513.8L900 516L900 601L886.3 601C872.7 601 845.3 601 818 601C790.7 601 763.3 601 736.2 601C709 601 682 601 654.8 601C627.7 601 600.3 601 573 601C545.7 601 518.3 601 491 601C463.7 601 436.3 601 409 601C381.7 601 354.3 601 327 601C299.7 601 272.3 601 245.2 601C218 601 191 601 163.8 601C136.7 601 109.3 601 82 601C54.7 601 27.3 601 13.7 601L0 601Z" fill="#4bca75"></path></svg>